<mxfile host="app.diagrams.net" modified="2024-01-08T00:44:07.948Z" agent="Mozilla/5.0 (Windows NT 10.0; Win64; x64) AppleWebKit/537.36 (KHTML, like Gecko) Chrome/120.0.0.0 Safari/537.36" version="22.1.16" etag="q-TcyRxWhYke2ByBoA_k" type="github">
  <diagram name="第 1 页" id="prlNxFJ4VGk4BH8smg3V">
    <mxGraphModel>
      <root>
        <mxCell id="0" />
        <mxCell id="1" parent="0" />
      </root>
    </mxGraphModel>
  </diagram>
</mxfile>
